<?xml version="1.0" standalone="no"?>
<!DOCTYPE svg PUBLIC "-//W3C//DTD SVG 20010904//EN"
 "http://www.w3.org/TR/2001/REC-SVG-20010904/DTD/svg10.dtd">
<svg version="1.0" xmlns="http://www.w3.org/2000/svg"
 width="2739.000000pt" height="924.000000pt" viewBox="0 0 2739.000000 924.000000"
 preserveAspectRatio="xMidYMid meet">

<g transform="translate(0.000000,924.000000) scale(0.100000,-0.100000)"
fill="#000000" stroke="none">
<path d="M23875 9074 c-16 -9 -50 -36 -75 -60 -25 -24 -65 -58 -90 -76 -56
-42 -103 -103 -126 -165 -10 -26 -22 -51 -27 -54 -5 -3 -57 -9 -115 -13 -121
-8 -275 -27 -440 -57 l-113 -19 -42 35 c-41 35 -134 85 -159 85 -7 0 -35 12
-62 26 -26 14 -72 28 -102 31 -47 5 -58 3 -88 -20 -21 -17 -41 -45 -52 -74 -9
-27 -25 -57 -34 -68 -32 -37 -51 -86 -58 -147 l-7 -60 -105 -55 c-217 -114
-395 -245 -534 -395 l-84 -91 -48 62 c-108 138 -124 173 -124 271 l0 55 -95
48 c-52 27 -147 82 -211 123 -69 44 -113 67 -109 57 14 -33 92 -358 100 -410
6 -49 8 -51 43 -58 42 -8 84 -28 129 -61 29 -22 193 -225 193 -240 0 -4 -27
-50 -59 -103 -338 -550 -536 -1317 -603 -2336 -19 -304 -16 -1298 5 -1565 66
-812 220 -1430 457 -1831 288 -487 682 -800 1171 -928 175 -45 251 -56 414
-55 156 1 245 15 346 54 30 11 55 20 56 20 1 0 -10 -28 -24 -62 -34 -84 -43
-200 -19 -263 37 -96 116 -138 310 -164 163 -23 304 -118 422 -288 l51 -71 16
28 c89 150 248 283 382 319 22 5 77 15 122 20 143 18 233 75 263 166 19 58 8
178 -23 253 -22 54 -24 63 -9 57 243 -102 597 -98 892 12 374 138 761 462 984
823 284 458 454 1155 507 2072 14 243 7 1264 -10 1483 -57 736 -170 1289 -363
1775 -62 156 -168 370 -236 476 -29 45 -52 85 -52 89 0 10 142 198 184 244 33
36 137 91 172 91 19 0 23 10 38 93 16 86 76 329 92 371 5 14 -7 9 -52 -21 -88
-59 -220 -137 -296 -174 l-68 -33 0 -66 c0 -83 -18 -121 -110 -244 l-73 -96
-96 97 c-165 168 -346 301 -542 399 l-97 47 -5 57 c-3 34 -15 76 -31 106 -45
82 -53 98 -72 138 -38 80 -118 97 -219 46 -33 -16 -67 -30 -75 -30 -29 -1
-118 -49 -159 -85 l-41 -37 -112 21 c-136 25 -310 48 -433 56 -133 9 -131 8
-149 62 -22 63 -77 137 -128 171 -22 15 -59 47 -82 71 -72 76 -145 99 -211 65z
m109 -64 c18 -10 38 -31 46 -45 7 -14 32 -36 56 -50 66 -39 121 -108 144 -183
11 -35 20 -70 20 -77 0 -8 35 -14 123 -19 157 -9 400 -40 550 -70 l117 -24 59
58 c46 47 69 62 116 76 32 9 72 25 89 35 17 10 41 19 53 19 23 0 63 -43 63
-67 0 -8 12 -30 27 -49 34 -46 53 -119 44 -171 l-8 -41 131 -65 c150 -75 261
-147 393 -254 89 -71 263 -247 263 -264 0 -4 -10 -20 -23 -35 l-23 -26 -39 48
c-178 217 -466 421 -768 544 -31 13 -55 29 -53 34 24 56 28 88 18 125 -17 56
-48 91 -80 91 -64 -1 -153 -67 -168 -126 -3 -13 -8 -24 -9 -24 -2 0 -51 11
-109 25 -196 46 -478 85 -733 100 l-112 7 -7 37 c-18 109 -63 188 -136 241
-23 17 -50 44 -60 60 -23 39 -34 38 -59 -5 -12 -19 -25 -35 -30 -35 -20 0
-102 -87 -126 -133 -13 -27 -29 -75 -35 -107 l-10 -58 -106 -6 c-268 -17 -586
-61 -765 -107 -44 -11 -80 -19 -82 -17 -1 2 -12 22 -24 45 -25 50 -77 88 -139
102 -43 9 -43 9 -69 -30 -32 -48 -40 -113 -20 -160 l14 -35 -112 -48 c-262
-111 -524 -300 -698 -505 l-46 -54 -20 24 c-11 13 -20 29 -21 34 0 18 148 172
243 251 51 43 135 106 187 140 95 62 307 174 330 174 9 0 10 14 5 49 -8 57 6
115 39 164 13 19 27 46 31 58 10 33 45 69 67 69 10 0 40 -11 66 -25 26 -14 53
-25 60 -25 30 0 113 -53 148 -94 l39 -45 120 24 c151 31 404 64 556 72 l116 6
11 56 c15 69 54 134 111 181 24 19 61 53 84 75 48 47 87 75 106 75 7 0 28 -9
45 -20z m506 -574 c292 -33 560 -89 770 -161 217 -75 463 -213 607 -338 l61
-54 -173 -197 c-172 -194 -195 -230 -180 -276 3 -11 4 -20 0 -20 -3 0 -43 22
-89 50 -294 177 -635 276 -1111 322 -167 16 -710 16 -880 0 -477 -46 -810
-144 -1112 -327 -40 -25 -76 -45 -78 -45 -2 0 -3 18 -2 39 2 50 -9 64 -202
282 l-154 173 48 40 c353 301 860 474 1545 526 178 13 780 4 950 -14z m2269
-133 c-462 -616 -478 -636 -490 -610 -10 22 0 38 124 200 141 184 168 235 172
324 l1 45 102 53 c56 29 114 62 129 73 16 11 30 19 32 16 2 -2 -29 -47 -70
-101z m-5500 -14 l81 -41 0 -49 c0 -79 33 -141 164 -312 106 -137 122 -164
112 -179 -6 -10 -14 -17 -18 -16 -8 4 -528 693 -528 701 0 4 24 -9 54 -28 29
-19 90 -53 135 -76z m640 -469 c8 0 311 -336 311 -345 0 -3 -10 -5 -23 -5 -56
0 -87 -47 -136 -210 -38 -122 -66 -175 -118 -220 l-37 -33 -12 84 c-12 80 -43
180 -78 246 l-15 30 -119 -5 c-66 -2 -136 -2 -157 2 l-37 7 51 54 c35 37 66
86 100 159 39 84 63 119 109 166 56 55 109 84 140 74 8 -2 17 -4 21 -4z m4192
-25 c57 -37 102 -100 163 -226 43 -90 65 -126 101 -157 l46 -40 -42 -7 c-23
-4 -96 -6 -161 -4 l-120 4 -39 -91 c-26 -61 -43 -121 -52 -180 l-12 -88 -38
34 c-52 45 -80 98 -118 220 -50 164 -70 197 -131 209 l-32 7 153 168 c85 92
164 172 175 176 28 11 63 3 107 -25z m-4561 -177 l23 -31 -23 -44 c-39 -74
-158 -193 -192 -193 -5 0 18 53 51 118 71 137 98 182 109 182 5 0 19 -14 32
-32z m2232 22 c33 -10 80 -52 90 -81 7 -22 49 10 68 53 l18 41 17 -34 c38 -74
64 -86 82 -39 8 22 25 36 59 51 44 20 60 21 228 16 199 -5 344 -24 511 -67
305 -77 605 -234 869 -454 l28 -24 -23 -31 c-12 -17 -26 -31 -31 -31 -4 0 -41
27 -80 61 -168 140 -417 281 -625 353 -128 44 -298 80 -473 100 -292 34 -410
13 -410 -73 0 -31 -46 -27 -103 9 l-48 30 -39 -26 c-48 -32 -124 -45 -114 -20
9 24 -23 66 -64 83 -79 33 -461 -4 -701 -68 -275 -73 -571 -226 -755 -391
l-59 -52 -29 34 -29 35 28 23 c334 280 714 443 1163 497 130 16 372 18 422 5z
m2714 -161 c36 -66 64 -123 61 -126 -10 -9 -95 56 -132 101 -20 23 -47 60 -60
82 l-24 40 26 33 27 34 17 -22 c10 -12 48 -76 85 -142z m-2787 11 c23 -12 28
-49 10 -82 -11 -20 -10 -21 72 -16 59 3 96 11 125 26 l41 21 43 -21 c30 -15
69 -23 127 -26 l83 -4 -16 30 c-21 42 -6 68 49 83 31 9 78 9 188 0 359 -27
668 -123 947 -292 77 -47 213 -152 255 -197 l28 -29 -207 -269 c-228 -296
-445 -583 -517 -685 -52 -73 -77 -89 -143 -89 -38 0 -51 5 -74 30 -42 45 -116
197 -225 460 -139 338 -181 415 -267 495 -38 35 -94 76 -122 90 -78 38 -206
52 -349 38 -134 -14 -215 -41 -271 -93 -23 -21 -66 -50 -98 -65 -117 -55 -176
-135 -163 -220 3 -22 14 -51 25 -65 l20 -25 0 33 c0 37 -3 36 43 17 20 -8 61
-15 91 -15 49 0 57 -3 85 -36 17 -19 35 -33 40 -30 5 3 12 -5 15 -19 3 -13 18
-30 33 -37 36 -17 58 -57 49 -91 -4 -17 -93 -113 -237 -257 -198 -199 -234
-230 -260 -230 -17 0 -39 5 -49 10 -11 6 -117 140 -236 298 -120 158 -300 396
-401 529 l-183 242 67 57 c293 245 740 410 1213 448 67 5 146 -1 169 -14z
m-2289 -165 c41 -8 134 -18 207 -21 l131 -7 30 -76 c38 -97 52 -165 52 -252 0
-68 1 -70 23 -63 35 11 99 44 133 69 l30 23 73 -95 73 -95 -70 -136 c-278
-544 -438 -1146 -470 -1780 -5 -89 -11 -165 -14 -168 -8 -7 -178 95 -347 210
-114 76 -220 155 -355 263 l-28 23 11 152 c57 766 177 1334 387 1833 31 74 57
135 58 135 0 0 35 -7 76 -15z m5191 -77 c175 -399 296 -877 364 -1438 20 -174
45 -463 45 -537 l0 -61 -121 -94 c-66 -51 -175 -130 -242 -176 -132 -90 -356
-227 -361 -221 -1 2 -8 94 -14 204 -36 618 -179 1167 -442 1694 l-88 175 74
98 75 98 32 -24 c35 -26 80 -50 113 -60 20 -6 21 -2 27 82 6 87 30 180 66 266
l19 43 133 7 c74 3 163 12 199 20 36 7 69 13 74 12 5 -1 26 -41 47 -88z
m-4309 -391 c270 -364 320 -437 299 -437 -18 0 -174 190 -343 415 -90 121
-168 226 -172 233 -7 12 9 42 23 42 3 0 90 -114 193 -253z m3532 190 c-48 -79
-422 -556 -473 -601 -74 -66 16 69 280 425 162 218 172 229 186 209 8 -11 11
-26 7 -33z m-1871 -48 c80 -13 129 -34 182 -80 47 -42 45 -53 -7 -45 l-43 7
54 -28 c49 -25 158 -130 182 -175 8 -15 5 -16 -26 -11 -19 3 -35 1 -35 -4 0
-5 20 -29 45 -53 53 -52 56 -65 15 -57 l-29 6 34 -45 c43 -56 121 -211 166
-331 31 -83 36 -91 59 -90 22 2 30 -8 65 -78 48 -96 91 -225 106 -315 14 -86
14 -346 0 -495 -16 -165 -19 -177 -40 -170 -16 5 -19 -4 -25 -61 -8 -83 -30
-187 -58 -282 -18 -60 -24 -72 -40 -70 -17 3 -24 -12 -48 -107 -31 -122 -87
-282 -101 -291 -5 -3 -18 5 -29 18 -21 26 -21 27 -40 -67 -22 -105 -81 -215
-78 -142 5 79 -3 81 -28 8 -26 -76 -69 -151 -91 -159 -7 -2 -13 3 -13 10 0 8
-6 23 -14 34 -12 16 -15 16 -19 4 -50 -162 -62 -193 -91 -226 l-33 -38 -6 47
c-9 63 -47 153 -58 135 -4 -7 -11 -41 -15 -76 -6 -61 -7 -62 -25 -46 -29 26
-87 148 -95 199 -8 55 -21 50 -30 -10 -5 -40 -8 -44 -22 -33 -26 21 -51 91
-63 173 -8 49 -15 72 -20 63 -5 -7 -9 -23 -9 -35 0 -13 -4 -23 -9 -23 -15 0
-72 92 -84 137 l-11 43 -22 -21 -23 -21 -21 42 c-60 118 -158 406 -195 573
-15 66 -20 77 -35 72 -21 -7 -19 -16 -57 255 -33 238 -36 463 -9 575 26 108
77 202 159 296 76 87 305 304 313 296 2 -2 -3 -21 -12 -43 l-16 -39 23 20 c13
11 49 42 79 70 52 48 54 49 60 27 l5 -23 40 29 c22 16 53 44 69 61 25 26 37
31 75 31 25 1 57 7 71 14 l25 14 -38 7 c-53 10 -54 22 -5 36 24 6 52 16 62 21
18 10 17 12 -15 29 -47 25 -62 24 -54 -2 7 -20 5 -21 -31 -15 -44 8 -94 31
-209 98 -44 25 -91 49 -105 53 -19 4 -21 4 -9 -4 9 -6 46 -44 83 -86 l68 -75
-39 0 c-29 0 -56 11 -107 45 -51 33 -79 45 -107 45 -27 0 -38 5 -41 17 -2 12
-13 17 -35 17 -50 1 -44 19 12 38 l50 17 -85 0 c-102 1 -127 -5 -133 -30 -6
-22 -57 -27 -57 -6 0 34 24 89 51 118 l30 32 29 -28 c33 -31 36 -29 18 9 -9
22 -8 29 6 45 10 11 31 23 47 26 16 4 48 23 72 42 23 20 58 43 77 51 90 40
230 52 363 31z m1564 -711 c86 -52 268 -303 359 -493 57 -122 105 -263 135
-400 22 -101 37 -383 25 -479 -7 -50 -10 -57 -27 -53 -10 3 -19 4 -19 2 0 -17
-24 -177 -36 -240 -19 -97 -52 -205 -65 -205 -9 0 -34 81 -45 149 l-6 45 -19
-48 c-20 -54 -79 -156 -91 -156 -11 0 -23 89 -22 173 l1 78 -38 -72 c-47 -89
-75 -121 -89 -100 -16 28 -30 137 -31 257 l-2 119 -14 -100 c-11 -78 -18 -104
-34 -117 -32 -27 -47 -22 -55 19 -7 34 1 272 11 338 2 17 -7 -13 -21 -65 -31
-117 -43 -297 -24 -365 7 -25 15 -45 18 -45 3 0 25 16 48 36 l44 35 0 -47 c0
-57 28 -164 43 -164 6 0 33 23 59 51 l48 51 0 -50 c0 -28 5 -75 11 -104 l12
-52 29 34 c16 19 44 60 61 90 l32 55 8 -50 c9 -58 36 -146 48 -159 25 -28 106
233 132 424 13 98 34 120 29 30 -12 -203 -99 -1181 -138 -1555 -39 -372 -113
-948 -123 -958 -13 -13 -22 80 -21 216 0 79 -5 151 -16 205 -17 82 -17 85 25
585 50 595 55 657 41 606 -14 -54 -77 -499 -99 -704 -33 -295 -37 -419 -16
-495 14 -50 18 -97 16 -205 -1 -93 3 -166 13 -218 18 -94 23 -102 43 -85 14
11 15 10 10 -7 -3 -11 -13 -56 -23 -100 -22 -106 -28 -116 -47 -79 -33 65 -49
160 -54 324 -4 126 -10 180 -25 230 -29 93 -34 264 -14 500 62 748 76 933 73
936 -6 7 -67 -388 -87 -562 -55 -491 -61 -744 -21 -879 17 -58 21 -95 20 -215
l-1 -145 -24 72 c-58 176 -79 419 -71 813 6 288 22 562 52 864 8 82 13 151 12
153 -11 11 -61 -317 -82 -540 -9 -95 -19 -183 -22 -197 l-5 -25 -13 25 c-7 14
-21 55 -31 90 -23 84 -23 342 0 550 18 163 19 201 5 155 -20 -67 -61 -278 -73
-381 l-13 -109 -21 46 c-53 113 -52 263 3 669 2 19 -7 1 -20 -40 -38 -114 -67
-282 -69 -396 -1 -99 -2 -102 -20 -86 -52 47 -82 171 -71 297 4 44 20 152 36
240 15 87 27 161 25 163 -7 6 -63 -162 -86 -253 -12 -49 -25 -137 -28 -194
l-7 -105 -28 52 c-17 32 -32 80 -39 129 -14 96 4 235 57 447 19 77 33 141 31
143 -1 2 -22 -43 -44 -100 -48 -120 -88 -264 -98 -351 l-7 -61 -16 35 c-11 26
-15 68 -15 160 1 131 22 250 79 441 14 45 23 85 20 87 -7 7 -62 -120 -97 -221
-32 -97 -58 -218 -58 -275 -1 -70 -22 -5 -28 83 -9 151 48 396 140 596 41 90
58 109 58 65 0 -33 10 -57 21 -50 5 3 9 16 9 29 0 41 49 183 110 315 32 70 64
147 71 171 15 52 29 72 29 42 0 -46 20 -30 55 43 20 43 50 119 67 171 17 51
34 90 39 88 4 -3 11 -22 15 -43 l8 -37 12 40 c15 48 18 174 4 209 -42 111
-139 80 -275 -90 -81 -101 -130 -142 -211 -180 -60 -28 -196 -50 -221 -35 -20
11 -27 8 77 37 87 25 164 78 246 172 114 128 217 232 252 254 67 41 128 43
189 6z m-2941 -23 c29 -18 109 -97 178 -174 70 -77 145 -154 167 -172 45 -36
135 -76 192 -85 20 -4 40 -11 44 -17 4 -6 -26 -8 -85 -5 -79 4 -99 9 -166 41
-61 31 -88 53 -143 114 -134 152 -188 201 -228 209 -45 8 -63 -1 -90 -47 -14
-25 -20 -52 -20 -99 0 -112 24 -182 39 -110 3 17 9 30 13 30 5 0 21 -41 37
-90 15 -50 47 -130 70 -178 l43 -87 7 39 8 40 23 -70 c13 -38 44 -114 70 -169
59 -128 102 -251 111 -316 6 -43 9 -48 17 -33 6 11 14 35 17 54 l7 35 37 -79
c50 -108 100 -254 126 -372 24 -107 31 -290 14 -333 -9 -19 -13 -6 -27 78 -9
56 -30 142 -47 191 -30 91 -100 253 -106 247 -2 -2 12 -57 31 -122 57 -194 78
-320 73 -454 -4 -126 -21 -188 -32 -116 -15 93 -59 253 -97 351 -22 58 -43
103 -45 101 -2 -2 11 -69 30 -148 48 -197 59 -277 54 -389 -3 -70 -10 -109
-27 -147 -38 -86 -46 -83 -47 22 -1 63 -10 127 -29 201 -28 111 -74 248 -82
241 -2 -3 9 -69 24 -148 38 -198 40 -398 5 -476 -13 -28 -32 -59 -43 -69 -19
-17 -19 -15 -19 78 0 53 -7 135 -15 184 -17 95 -65 287 -72 281 -2 -2 6 -75
17 -161 33 -255 24 -453 -22 -541 l-16 -30 -6 25 c-2 14 -8 59 -11 100 -6 76
-56 340 -75 395 -9 28 -10 28 -5 -10 41 -369 44 -622 7 -748 -11 -38 -24 -73
-29 -78 -6 -6 -16 58 -26 168 -20 205 -52 433 -72 513 l-14 55 5 -63 c57 -693
72 -1024 56 -1284 -7 -106 -18 -231 -26 -278 -15 -93 -54 -248 -65 -254 -3 -2
-5 62 -5 142 1 116 6 163 23 221 11 40 23 105 27 145 12 139 -41 746 -92 1051
-48 291 -53 279 -24 -65 69 -827 75 -1002 42 -1123 -15 -51 -22 -106 -22 -161
0 -179 -44 -428 -75 -427 -5 0 -20 42 -32 93 -27 112 -28 125 -10 109 11 -9
16 -3 25 27 23 76 34 198 28 302 -5 80 -3 117 9 154 20 64 20 247 0 447 -17
170 -88 676 -110 779 l-13 65 4 -60 c3 -33 22 -271 44 -529 42 -490 48 -628
29 -686 -6 -19 -13 -115 -14 -214 -2 -98 -8 -183 -13 -188 -12 -12 -15 3 -52
292 -64 499 -103 881 -164 1590 -59 687 -60 700 -48 700 6 0 14 -21 17 -47 29
-225 94 -452 134 -478 10 -6 44 97 56 168 l6 39 35 -59 c38 -63 80 -110 89
-101 3 3 11 46 17 95 l12 89 48 -50 c29 -30 52 -46 57 -40 15 16 30 74 37 140
l7 63 40 -34 c22 -19 43 -32 47 -30 19 12 32 112 27 194 -5 79 -45 296 -53
288 -2 -2 2 -66 8 -143 11 -140 4 -234 -18 -241 -6 -2 -23 6 -37 17 -21 17
-27 30 -28 63 0 23 -4 60 -8 82 -5 31 -8 12 -13 -85 -6 -125 -23 -230 -37
-230 -14 0 -49 45 -84 108 l-34 63 -5 -111 c-2 -61 -9 -115 -15 -121 -13 -13
-63 64 -95 146 l-23 60 -6 -55 c-8 -68 -26 -137 -39 -145 -5 -3 -16 11 -25 32
-19 45 -61 251 -71 346 -5 58 -9 67 -24 62 -22 -7 -27 12 -36 126 -10 129 12
331 51 483 69 267 176 477 362 706 118 144 198 169 309 95z m2602 -529 c-5
-91 -39 -206 -61 -206 -19 0 14 234 44 305 10 25 13 27 17 11 2 -11 2 -61 0
-110z m-2414 -18 c9 -43 16 -105 15 -140 l-1 -63 -23 50 c-30 62 -49 182 -40
244 l8 46 13 -30 c7 -17 19 -65 28 -107z m2077 -61 c13 -48 6 -158 -12 -202
-12 -29 -13 -27 -20 45 -4 41 -10 113 -14 160 l-6 85 20 -23 c11 -13 26 -43
32 -65z m224 -49 c-7 -89 -60 -317 -77 -333 -12 -11 -4 131 13 230 16 97 48
185 67 185 2 0 1 -37 -3 -82z m-2195 -6 c11 -37 24 -96 30 -132 10 -66 14
-217 5 -209 -14 14 -66 256 -72 333 -8 107 6 110 37 8z m2020 -374 c-55 -222
-87 -412 -111 -653 -1 -5 -5 1 -9 15 -14 43 -11 319 5 422 19 126 59 245 107
320 22 33 41 59 43 57 2 -2 -14 -75 -35 -161z m-1850 51 c58 -109 100 -321
100 -510 0 -100 -10 -209 -19 -209 -4 0 -12 55 -19 123 -15 164 -45 329 -92
524 -22 88 -40 165 -40 170 1 14 38 -38 70 -98z m285 -830 c45 -85 44 -102 -1
-58 -41 38 -84 121 -84 159 l1 25 24 -30 c14 -16 41 -60 60 -96z m1396 -100
c6 -57 14 -128 18 -156 8 -58 9 -58 -21 -42 -11 6 -21 9 -23 7 -3 -2 4 -51 15
-108 10 -58 22 -152 25 -210 8 -104 8 -105 -12 -87 -20 17 -20 16 -27 -60 -3
-43 -9 -133 -13 -200 -3 -68 -8 -123 -10 -123 -2 0 -20 7 -40 15 -19 8 -37 15
-39 15 -8 0 30 -97 45 -114 27 -31 85 -55 237 -97 184 -50 252 -78 277 -111
17 -22 18 -30 7 -43 -7 -8 -19 -15 -28 -15 -8 0 -20 -7 -27 -17 -15 -20 -61
-21 -104 -3 -36 14 -39 25 -11 33 34 9 22 24 -27 36 -69 17 -150 18 -164 4
-18 -18 7 -66 67 -134 80 -90 105 -173 64 -217 -25 -27 -54 -28 -78 -4 -10 10
-24 16 -30 14 -15 -5 -62 24 -62 38 0 6 9 10 20 10 19 0 24 10 20 39 -3 23
-104 151 -119 151 -21 0 -8 -93 24 -165 30 -67 44 -158 26 -169 -6 -4 -11 -22
-11 -41 0 -22 -9 -44 -25 -62 l-24 -28 -2 45 c-1 25 -2 51 -2 58 1 6 -9 12
-22 12 -45 0 -51 21 -96 330 -6 47 -15 89 -20 94 -14 16 -59 -22 -59 -50 0
-22 -2 -24 -15 -14 -8 7 -24 28 -36 46 -25 42 -20 70 21 118 33 37 35 51 19
106 l-11 37 -49 -33 c-44 -29 -123 -53 -135 -41 -3 3 -1 22 5 44 6 21 11 65
11 97 l0 59 -24 -22 -24 -23 -8 48 c-9 63 3 281 20 369 22 108 53 178 110 252
64 82 142 201 157 240 l11 28 23 -29 23 -29 20 46 c11 25 39 70 61 100 23 29
41 60 41 67 0 10 3 11 11 3 6 -6 15 -57 20 -114z m-1498 31 c25 -36 49 -78 52
-93 10 -38 20 -41 44 -11 l20 26 15 -37 c19 -46 117 -195 128 -195 4 0 15 12
25 26 l17 26 17 -35 c74 -144 112 -319 113 -527 1 -85 -2 -164 -7 -174 -7 -18
-9 -18 -34 5 l-26 24 7 -75 c3 -41 9 -87 12 -102 5 -23 3 -28 -12 -28 -40 0
-95 22 -137 54 l-44 34 -12 -38 c-18 -59 -14 -94 13 -119 39 -37 48 -75 25
-105 -10 -13 -19 -29 -19 -34 0 -5 -7 -15 -15 -22 -13 -10 -15 -9 -15 9 0 24
-33 61 -54 61 -9 0 -16 -17 -20 -47 -8 -59 -45 -285 -54 -333 -6 -28 -13 -37
-39 -44 -31 -9 -32 -12 -35 -65 l-3 -56 -22 23 c-16 15 -23 34 -23 61 0 22 -4
43 -10 46 -19 12 -10 94 19 167 49 126 50 197 1 153 -31 -28 -101 -138 -98
-154 2 -8 14 -18 26 -21 l24 -5 -26 -24 c-14 -13 -32 -21 -40 -18 -8 3 -22 -3
-32 -14 -37 -41 -94 -7 -94 56 0 51 20 92 78 160 80 93 95 137 52 148 -34 9
-173 -12 -189 -28 -14 -14 -14 -16 7 -21 42 -11 19 -35 -45 -47 -22 -4 -38 -1
-55 12 -13 10 -31 21 -41 24 -27 10 -32 35 -11 59 29 32 113 65 275 108 173
45 227 71 251 120 24 50 34 95 19 86 -6 -4 -25 -11 -40 -16 l-29 -8 2 186 c2
103 6 196 11 207 9 19 8 20 -18 2 -14 -9 -28 -17 -31 -17 -2 0 -7 30 -11 68
-6 61 0 118 31 312 l7 44 -27 -17 -27 -18 6 48 c3 26 10 95 15 151 6 57 13
108 16 114 7 12 9 10 67 -72z m475 -542 c28 -35 43 -78 26 -78 -30 0 -74 62
-74 105 0 24 13 17 48 -27z m478 -152 c-26 -62 -55 -95 -124 -141 -37 -24 -68
-42 -70 -40 -7 7 32 72 67 110 20 22 47 54 59 70 l23 30 -5 -30 -6 -30 32 37
c18 20 34 35 36 33 2 -1 -4 -19 -12 -39z m-346 -61 c46 -48 72 -95 52 -95 -4
0 -34 24 -65 53 -51 47 -57 57 -57 92 1 35 2 37 12 20 6 -11 32 -42 58 -70z
m25 -188 c38 -29 74 -62 80 -74 l11 -21 9 21 c6 12 58 54 117 93 98 66 105 70
97 44 -13 -35 -33 -53 -143 -129 -73 -51 -90 -60 -100 -48 -6 8 -45 39 -87 71
-74 54 -109 100 -109 142 0 14 6 11 28 -15 15 -18 58 -56 97 -84z m-821 35 c3
-5 -2 -28 -10 -51 -14 -41 -10 -110 11 -162 5 -13 -7 -20 -61 -33 -36 -9 -69
-15 -71 -12 -2 2 -10 34 -16 70 -6 36 -16 66 -22 66 -13 0 -78 -53 -147 -119
-35 -33 -48 -40 -48 -28 0 37 195 206 298 259 39 20 58 23 66 10z m1921 -49
c110 -71 258 -213 241 -230 -3 -4 -28 14 -54 38 -70 68 -134 119 -147 119 -8
0 -14 -24 -18 -61 -3 -34 -10 -66 -15 -71 -7 -7 -31 -5 -75 7 l-64 17 13 46
c18 60 18 106 -2 144 -30 58 24 54 121 -9z m-1077 -183 c25 -37 28 -54 10 -48
-14 5 -58 66 -58 80 0 18 25 1 48 -32z m176 13 c-4 -16 -17 -39 -30 -53 -29
-32 -84 -65 -84 -50 0 12 101 128 113 129 4 1 4 -11 1 -26z m-378 -197 c-21
-65 -24 -69 -65 -83 -24 -8 -45 -13 -47 -11 -2 2 26 41 62 87 36 46 67 81 69
79 2 -2 -6 -34 -19 -72z m555 -57 c7 -14 3 -18 -26 -21 -38 -4 -32 -14 -80
127 -7 20 89 -77 106 -106z m-445 49 c-4 -35 -10 -80 -13 -101 -6 -37 -6 -37
-25 -20 -16 14 -19 26 -14 54 7 42 42 129 52 129 4 0 4 -28 0 -62z m302 -105
c9 -37 7 -44 -14 -64 -13 -12 -26 -21 -28 -18 -2 2 -6 54 -9 114 l-6 110 24
-50 c13 -27 28 -69 33 -92z m-119 5 c6 -24 15 -65 20 -93 9 -45 7 -53 -15 -82
-14 -18 -27 -33 -30 -33 -2 0 -4 56 -4 125 0 69 4 125 9 125 4 0 14 -19 20
-42z m-99 -80 l-1 -73 -19 24 c-23 27 -25 45 -9 90 18 51 29 36 29 -41z m-194
42 c28 -18 174 -170 174 -182 0 -5 -489 -452 -499 -456 -3 -1 -26 17 -49 41
l-42 43 215 203 c208 195 237 231 195 239 -8 1 -60 -39 -116 -90 -232 -214
-334 -300 -349 -294 -40 15 -13 52 166 232 104 104 178 187 175 193 -4 7 -42
11 -96 11 -111 0 -118 3 -112 41 4 26 8 30 26 24 47 -15 172 -16 221 -1 28 8
52 15 54 15 2 1 18 -8 37 -19z m732 -4 l112 0 0 -27 0 -27 -99 -4 c-55 -1
-103 -6 -107 -11 -4 -4 76 -92 179 -195 103 -104 187 -193 187 -199 0 -5 -8
-17 -17 -25 -17 -15 -30 -5 -178 128 -317 286 -284 259 -303 240 -16 -16 -12
-22 68 -99 47 -46 146 -140 220 -209 l135 -127 -40 -41 c-22 -22 -45 -39 -52
-38 -6 2 -122 104 -257 227 l-245 224 49 57 c27 31 70 76 96 99 45 43 47 43
93 35 25 -5 97 -9 159 -8z m724 -301 c149 -205 319 -496 334 -573 6 -32 6 -32
-27 -26 -106 20 -170 76 -316 273 -64 86 -122 163 -130 171 -12 13 -13 12 -4
-11 51 -138 187 -350 291 -457 68 -70 82 -92 96 -147 9 -35 -14 -33 -90 7 -95
50 -225 187 -336 353 -101 153 -107 148 -25 -20 62 -127 111 -204 189 -295 88
-103 76 -108 -75 -30 l-131 67 -60 107 c-33 59 -62 105 -64 103 -2 -2 9 -40
23 -85 15 -45 25 -84 22 -86 -10 -10 -334 124 -386 160 -29 20 -53 40 -53 43
0 4 13 20 29 35 29 28 29 28 60 10 41 -24 54 -16 161 101 72 80 90 106 90 130
0 16 -5 37 -10 45 -6 10 -5 20 4 30 15 18 56 142 56 170 0 21 7 20 68 -7 57
-25 115 6 133 69 l11 43 30 -35 c16 -19 66 -84 110 -145z m-2182 60 c17 -4 42
-1 62 8 64 29 68 29 68 -1 1 -33 35 -137 55 -168 9 -14 11 -25 5 -29 -6 -3
-10 -19 -10 -35 0 -22 22 -52 95 -133 52 -57 103 -107 114 -110 11 -2 33 3 49
13 l30 18 32 -33 33 -34 -24 -21 c-46 -38 -108 -70 -235 -120 -70 -27 -130
-50 -134 -50 -4 0 8 41 27 91 19 50 32 93 29 96 -2 2 -32 -45 -65 -105 l-61
-109 -140 -70 c-109 -55 -140 -66 -140 -54 0 10 18 35 40 56 47 46 121 151
173 245 40 73 90 190 84 196 -2 2 -42 -54 -90 -125 -130 -196 -264 -326 -376
-366 -39 -13 -41 -13 -41 6 0 41 33 96 103 169 112 115 188 232 268 408 44 98
45 99 -94 -93 -154 -211 -237 -285 -337 -301 -41 -7 -42 -6 -35 17 34 116 275
510 403 659 l33 40 25 -29 c13 -16 38 -32 54 -36z m1014 17 c15 -18 15 -20 -4
-37 -20 -18 -20 -18 -20 18 0 43 1 43 24 19z m139 -298 c133 -136 267 -266
297 -289 65 -50 135 -86 290 -150 149 -61 335 -150 430 -204 129 -74 201 -124
193 -132 -38 -36 -498 -62 -711 -40 -294 31 -507 122 -739 316 -122 102 -394
371 -392 388 1 7 30 38 65 71 l63 59 123 -118 c231 -222 451 -408 554 -470
100 -60 394 -141 579 -159 54 -5 50 -3 -50 24 -168 46 -363 109 -430 139 -93
43 -187 121 -529 440 l-198 185 98 93 c55 51 102 92 107 93 4 0 116 -111 250
-246z m12 151 l100 -94 -28 -28 -27 -28 -95 95 c-52 52 -95 99 -95 104 0 11
30 46 39 46 3 -1 51 -43 106 -95z m277 -270 c-2 -5 -14 -21 -28 -35 l-24 -25
-67 67 -67 67 29 31 29 30 65 -63 c36 -34 64 -66 63 -72z m-789 -223 l87 -88
-72 -57 c-44 -34 -107 -71 -158 -93 -67 -28 -365 -120 -475 -147 -15 -4 -14
-5 7 -6 57 -2 342 60 463 101 85 29 130 53 207 110 37 27 72 48 76 46 5 -1 39
-31 76 -65 l67 -61 -60 -36 c-224 -136 -444 -188 -801 -188 -245 0 -470 25
-470 52 0 13 145 102 280 173 69 36 206 100 305 142 212 90 281 126 332 171
21 18 40 33 43 34 3 0 45 -39 93 -88z m307 -373 c-17 -61 -63 -150 -94 -178
l-25 -24 -21 49 c-38 88 -37 98 10 119 23 10 63 34 88 52 25 18 48 31 50 29 2
-2 -2 -23 -8 -47z m156 -20 c75 -41 76 -42 69 -75 -8 -45 -33 -104 -44 -104
-12 0 -57 68 -79 120 -22 51 -35 100 -27 100 3 0 40 -19 81 -41z"/>
<path d="M23826 8398 c-12 -20 -13 -40 0 -153 7 -71 14 -137 14 -146 0 -14
-17 -18 -107 -23 -298 -19 -622 -58 -773 -92 -60 -14 -66 -14 -75 2 -24 41
-78 92 -123 117 l-50 27 -42 -46 c-44 -48 -79 -115 -80 -151 0 -21 5 -23 53
-23 32 0 61 -6 73 -15 19 -15 19 -15 -1 -31 -47 -37 -110 -57 -186 -58 -62 -1
-81 3 -98 18 -28 25 -28 92 -1 149 l21 42 -36 -40 c-47 -52 -71 -131 -55 -180
32 -96 210 -89 357 14 60 42 99 93 87 112 -9 16 -85 49 -111 49 -13 0 -23 5
-23 10 0 17 47 60 66 60 31 0 80 -47 112 -108 l32 -59 77 18 c225 54 598 89
1033 98 l324 6 7 25 c13 45 10 125 -6 146 -21 31 -76 54 -127 54 -49 0 -159
-28 -232 -60 -27 -11 -51 -18 -54 -16 -2 3 -7 37 -10 75 -5 69 -4 70 27 97
l32 27 -39 23 c-22 13 -42 31 -46 39 -8 21 -23 19 -40 -7z m399 -258 c8 -7 15
-23 15 -36 l0 -24 -162 0 c-114 0 -159 3 -151 11 5 5 50 24 99 40 94 31 168
34 199 9z"/>
<path d="M24078 8379 c-16 -11 -28 -24 -28 -28 0 -4 14 -17 31 -30 l30 -23 35
24 c18 13 34 26 34 30 0 8 -55 48 -67 48 -4 0 -20 -10 -35 -21z"/>
<path d="M24574 8154 c-32 -16 -97 -94 -108 -131 -10 -30 22 -60 79 -74 24 -6
42 -15 40 -20 -13 -20 -126 -52 -205 -58 l-85 -6 65 -23 c140 -47 173 -42 268
43 l52 47 153 -30 c83 -17 205 -47 271 -67 l119 -36 23 22 c52 49 68 131 38
195 -20 41 -30 42 -74 5 l-35 -29 18 -30 c9 -17 17 -40 17 -52 0 -17 -4 -21
-17 -15 -86 33 -419 115 -471 115 -17 0 -20 9 -24 57 -4 46 -10 61 -32 80 -32
27 -49 28 -92 7z m46 -86 c20 -38 6 -51 -42 -37 -47 12 -55 25 -32 50 24 26
55 21 74 -13z"/>
<path d="M25449 8071 l-23 -18 22 -7 c28 -9 28 -20 0 -34 -19 -9 -14 -11 37
-11 85 -1 99 12 41 37 -25 12 -46 26 -46 31 0 14 23 14 37 0 14 -14 47 -4 38
11 -11 17 -81 11 -106 -9z"/>
<path d="M25474 7964 c-58 -21 -75 -43 -132 -176 -46 -108 -49 -118 -30 -118
36 0 132 109 177 201 56 117 56 118 -15 93z"/>
<path d="M24738 7857 c-21 -12 -38 -25 -38 -28 0 -3 12 -17 28 -31 l27 -26 43
22 42 22 -32 31 -33 31 -37 -21z"/>
<path d="M22951 7824 c-12 -15 -21 -30 -21 -33 0 -12 72 -43 79 -34 4 4 17 20
30 35 l23 27 -37 15 c-49 21 -50 21 -74 -10z"/>
<path d="M22722 7750 c-10 -16 -21 -20 -49 -18 -32 3 -39 -1 -55 -28 l-19 -32
45 -15 c43 -15 44 -15 57 10 11 21 18 23 50 18 34 -6 38 -4 57 29 l20 35 -30
10 c-45 16 -62 14 -76 -9z"/>
<path d="M23552 6914 c-30 -15 -70 -70 -59 -80 2 -3 19 7 36 21 l31 27 0 -27
c0 -61 47 -94 105 -75 34 11 55 44 55 88 l0 27 92 -2 93 -3 -40 16 c-61 25
-270 30 -313 8z m138 -39 c0 -8 -6 -15 -14 -15 -7 0 -19 7 -26 15 -11 13 -8
15 14 15 16 0 26 -5 26 -15z"/>
<path d="M23900 6825 c28 -30 61 -49 104 -59 26 -7 28 -6 16 9 -16 20 -86 60
-120 70 l-25 7 25 -27z"/>
<path d="M24003 6844 c14 -15 142 -93 146 -89 7 7 -28 54 -52 69 -24 16 -107
34 -94 20z"/>
<path d="M23410 6815 c0 -10 7 -15 18 -13 21 4 19 22 -2 26 -10 2 -16 -3 -16
-13z"/>
<path d="M24110 6665 c26 -41 20 -55 -23 -55 -24 0 -28 -3 -17 -10 27 -18 140
-8 140 12 0 16 -58 65 -91 77 l-30 10 21 -34z"/>
<path d="M24120 6464 c0 -3 26 -16 57 -30 31 -14 70 -35 85 -45 15 -11 28 -18
28 -14 0 20 -35 67 -60 80 -27 14 -110 21 -110 9z"/>
<path d="M24110 6383 c0 -9 30 -45 68 -79 56 -53 68 -60 70 -44 4 25 -33 92
-61 109 -11 8 -33 17 -49 22 -22 6 -28 4 -28 -8z"/>
<path d="M24360 6268 c0 -25 48 -105 77 -130 15 -12 16 -9 10 31 -6 47 -28 85
-65 109 -21 14 -22 13 -22 -10z"/>
<path d="M23483 6064 c-23 -26 -54 -70 -67 -98 -23 -48 -45 -146 -33 -146 3 0
24 37 46 83 22 45 56 110 76 145 20 34 33 62 29 62 -4 0 -27 -21 -51 -46z"/>
<path d="M23960 6058 c-21 -35 -28 -128 -10 -128 25 0 65 97 56 135 -9 34 -22
31 -46 -7z"/>
<path d="M24189 6014 c-14 -36 -7 -99 22 -199 23 -77 23 -78 35 -49 35 84 24
212 -21 254 l-24 23 -12 -29z"/>
<path d="M23673 5948 c-55 -61 -65 -127 -31 -208 l15 -35 17 73 c21 83 35 192
26 192 -4 0 -16 -10 -27 -22z"/>
<path d="M24560 5928 c0 -26 26 -108 63 -197 l22 -54 7 39 c12 76 -19 171 -72
219 -20 18 -20 18 -20 -7z"/>
<path d="M23233 5826 c-31 -47 -46 -111 -37 -159 l6 -41 30 73 c20 51 28 87
26 117 l-3 43 -22 -33z"/>
<path d="M23926 5703 c-9 -26 -16 -68 -16 -94 0 -52 29 -154 41 -142 10 11 29
118 29 167 0 48 -17 116 -30 116 -4 0 -15 -21 -24 -47z"/>
<path d="M24513 5693 c-15 -47 -52 -121 -71 -143 l-21 -25 -50 50 c-28 27 -51
45 -51 39 0 -25 34 -123 57 -161 40 -68 47 -70 83 -22 36 51 58 119 67 211 6
65 -1 88 -14 51z"/>
<path d="M23615 5597 c-8 -20 -15 -45 -15 -56 0 -33 39 -124 66 -156 l26 -30
-7 85 c-8 102 -22 165 -41 181 -11 9 -17 4 -29 -24z"/>
<path d="M24592 5546 c-16 -35 -27 -192 -14 -200 24 -14 62 143 48 198 -8 32
-20 33 -34 2z"/>
<path d="M24231 5454 c-1 -13 -109 -144 -119 -144 -4 0 -31 22 -60 48 l-52 48
6 -35 c8 -46 58 -148 90 -184 31 -36 42 -29 88 64 35 71 61 166 53 197 -3 9
-5 12 -6 6z"/>
<path d="M23190 5402 c0 -52 21 -141 45 -194 14 -32 15 -31 9 42 -6 68 -38
200 -49 200 -3 0 -5 -22 -5 -48z"/>
<path d="M23456 5325 c-13 -120 -15 -123 -73 -72 l-37 32 25 -44 c13 -24 45
-68 71 -97 l47 -54 7 46 c9 63 -1 181 -19 224 l-14 35 -7 -70z"/>
<path d="M24625 5244 c-9 -43 -19 -87 -22 -96 -8 -31 6 -20 27 21 25 49 35
113 22 137 -8 14 -13 2 -27 -62z"/>
<path d="M23843 5250 c-12 -45 -65 -130 -82 -130 -5 0 -25 18 -45 40 -29 32
-36 36 -36 20 0 -39 42 -131 77 -168 l36 -37 28 59 c33 69 42 117 37 201 l-3
59 -12 -44z"/>
<path d="M24420 5177 c-18 -42 -108 -129 -128 -125 -9 2 -32 23 -51 48 l-34
45 5 -61 c6 -61 32 -130 63 -169 16 -20 17 -19 50 20 44 52 91 147 106 214 13
62 9 73 -11 28z"/>
<path d="M23350 5073 c0 -53 38 -140 85 -198 l25 -30 0 26 c0 58 -60 210 -94
238 -14 12 -16 8 -16 -36z"/>
<path d="M24542 4958 c-23 -63 -56 -207 -49 -214 10 -10 69 160 74 213 3 29 3
53 0 53 -3 0 -14 -24 -25 -52z"/>
<path d="M24112 4896 c-12 -28 -40 -71 -61 -96 -35 -41 -40 -43 -56 -30 -10 8
-31 35 -47 59 l-28 45 0 -45 c0 -54 36 -133 78 -173 27 -25 34 -27 47 -16 43
36 98 191 93 264 l-3 44 -23 -52z"/>
<path d="M24407 4890 c-26 -54 -49 -152 -61 -254 l-6 -49 19 24 c61 79 102
222 84 295 l-10 39 -26 -55z"/>
<path d="M23354 4850 c9 -52 70 -168 116 -220 l40 -45 -57 122 c-31 67 -68
135 -81 150 l-23 28 5 -35z"/>
<path d="M23801 4741 c-7 -33 -23 -81 -36 -108 l-22 -48 -62 61 c-33 33 -61
59 -61 57 0 -9 45 -92 73 -133 33 -50 87 -110 98 -110 4 0 16 24 26 53 13 38
18 81 18 159 0 127 -15 157 -34 69z"/>
<path d="M24162 4633 c-22 -52 -42 -148 -42 -197 l1 -31 14 25 c37 65 79 250
57 250 -5 0 -19 -21 -30 -47z"/>
<path d="M23867 4389 c-11 -40 -6 -162 8 -199 l13 -35 8 30 c14 48 9 167 -8
199 l-15 29 -6 -24z"/>
<path d="M23615 4387 c-12 -29 15 -123 51 -180 20 -32 38 -57 41 -57 13 0 -48
198 -72 233 -12 18 -15 18 -20 4z"/>
<path d="M24162 4262 c-25 -58 -52 -184 -51 -235 0 -30 2 -28 29 27 30 62 54
172 48 227 l-3 34 -23 -53z"/>
<path d="M23975 4110 c-14 -23 -17 -126 -5 -170 12 -42 14 -43 21 -20 10 35
10 172 0 189 -6 10 -10 10 -16 1z"/>
<path d="M25566 5865 c-33 -108 -123 -261 -142 -242 -5 5 -11 47 -14 95 l-5
87 -13 -53 c-21 -91 -10 -242 18 -242 14 0 67 75 101 142 33 65 82 228 77 255
-2 9 -11 -10 -22 -42z"/>
<path d="M25666 5735 c-27 -122 -114 -311 -134 -291 -3 4 -11 34 -17 69 l-12
62 -8 -57 c-9 -67 0 -137 20 -164 13 -19 14 -19 30 1 33 42 95 183 114 260 19
76 37 205 29 205 -2 0 -12 -38 -22 -85z"/>
<path d="M25755 5645 c-16 -135 -90 -342 -118 -332 -7 2 -20 19 -30 38 l-18
34 5 -58 c3 -33 13 -71 24 -89 l20 -31 26 42 c55 86 88 207 101 369 8 92 1
112 -10 27z"/>
<path d="M25802 5370 c-12 -91 -46 -200 -62 -200 -5 0 -16 12 -25 28 l-16 27
4 -47 c3 -26 12 -60 22 -75 17 -25 18 -25 31 -8 27 36 56 147 63 242 10 127
-1 149 -17 33z"/>
<path d="M25205 5325 c-47 -106 -67 -240 -46 -314 l7 -24 37 33 c35 30 76 90
62 90 -3 0 -17 -7 -31 -16 -13 -9 -28 -13 -32 -9 -13 13 -4 129 17 210 11 43
18 81 16 84 -3 2 -16 -22 -30 -54z"/>
<path d="M25893 5213 c-22 -124 -49 -173 -80 -142 -18 18 -3 -34 18 -61 24
-31 31 -23 60 71 14 46 19 87 17 135 l-3 69 -12 -72z"/>
<path d="M25982 5105 c-6 -41 -19 -91 -27 -111 -13 -31 -17 -34 -30 -24 -8 7
-15 9 -15 6 0 -14 31 -66 39 -66 19 0 44 89 49 178 2 50 3 92 0 92 -2 0 -10
-34 -16 -75z"/>
<path d="M25302 5078 c-17 -46 -35 -103 -42 -127 -14 -53 -15 -168 -1 -204 10
-27 12 -27 35 -12 27 18 51 51 66 90 l10 25 -30 -22 c-16 -12 -33 -18 -37 -14
-14 14 -4 180 16 261 11 44 18 81 16 83 -1 2 -16 -34 -33 -80z"/>
<path d="M25411 4114 c0 -11 3 -14 6 -6 3 7 2 16 -1 19 -3 4 -6 -2 -5 -13z"/>
<path d="M22286 5895 c9 -67 44 -176 79 -250 34 -72 98 -155 110 -143 3 3 11
35 17 70 8 48 8 81 -3 138 l-13 75 -9 -85 c-5 -47 -10 -87 -13 -89 -18 -18
-95 109 -139 230 -24 64 -33 81 -29 54z"/>
<path d="M22196 5727 c11 -125 74 -303 134 -377 24 -30 34 -20 50 52 10 48 4
138 -10 138 -4 0 -10 -23 -13 -51 -4 -29 -9 -54 -12 -57 -17 -18 -96 145 -130
268 l-26 95 7 -68z"/>
<path d="M22116 5577 c3 -49 14 -122 24 -163 21 -79 76 -195 98 -202 15 -5 37
46 46 106 7 49 -3 55 -22 12 -8 -16 -18 -30 -23 -30 -27 0 -77 127 -110 278
l-19 87 6 -88z"/>
<path d="M22051 5424 c-2 -135 42 -326 80 -349 13 -9 39 50 45 102 l6 48 -22
-35 c-21 -33 -23 -33 -36 -15 -20 27 -34 83 -54 215 l-18 115 -1 -81z"/>
<path d="M22656 5289 c23 -86 32 -198 18 -212 -4 -3 -19 0 -35 9 -34 17 -36
12 -10 -30 22 -35 77 -80 84 -68 13 22 16 108 7 168 -10 64 -63 208 -80 219
-4 2 3 -36 16 -86z"/>
<path d="M21961 5235 c-1 -59 20 -165 44 -221 l16 -39 25 28 c28 33 35 78 8
56 -24 -19 -39 7 -60 100 -26 121 -32 134 -33 76z"/>
<path d="M21882 5085 c-1 -80 23 -180 42 -180 6 0 18 15 29 33 l19 32 -23 -2
c-19 -3 -25 4 -36 42 -8 25 -18 70 -22 100 l-9 55 0 -80z"/>
<path d="M22545 5115 c29 -132 35 -169 35 -232 0 -39 -4 -74 -9 -77 -5 -3 -21
4 -36 16 l-27 21 7 -24 c10 -32 51 -86 75 -99 17 -9 21 -5 31 32 17 64 5 170
-31 273 -35 98 -56 140 -45 90z"/>
<path d="M24546 4118 c-8 -42 -45 -118 -57 -118 -5 0 -9 9 -9 20 0 44 -19 15
-49 -74 -17 -52 -31 -114 -31 -138 l0 -43 20 32 c11 18 39 57 63 86 23 29 49
67 56 85 12 30 17 32 44 26 26 -5 29 -4 23 12 -4 11 -16 46 -28 79 -11 33 -21
61 -23 63 -1 1 -5 -12 -9 -30z"/>
<path d="M23276 4125 c-4 -20 -16 -56 -27 -82 l-19 -46 30 6 c27 6 31 3 44
-26 7 -17 37 -61 66 -97 29 -36 59 -78 66 -95 l13 -30 1 32 c0 47 -18 123 -49
204 -26 69 -28 71 -35 43 l-8 -29 -19 24 c-10 13 -26 48 -35 77 -8 30 -17 54
-19 54 -1 0 -6 -16 -9 -35z"/>
<path d="M24918 1643 c7 -3 16 -2 19 1 4 3 -2 6 -13 5 -11 0 -14 -3 -6 -6z"/>
<path d="M22928 1643 c7 -3 16 -2 19 1 4 3 -2 6 -13 5 -11 0 -14 -3 -6 -6z"/>
<path d="M14063 6510 c-17 -10 -37 -29 -43 -40 -12 -23 -9 -102 4 -132 7 -16
2 -18 -43 -18 -50 0 -51 -1 -51 -30 l0 -30 165 0 165 0 0 30 c0 29 -2 30 -45
30 -89 0 -153 48 -139 105 10 40 47 50 117 33 l59 -15 9 24 c14 36 12 40 -22
52 -52 18 -140 14 -176 -9z"/>
<path d="M17844 6266 c-270 -132 -491 -321 -579 -496 -31 -61 -67 -161 -61
-167 2 -3 40 -14 83 -25 114 -29 194 -71 256 -137 75 -79 99 -144 95 -265 l-3
-91 -522 -2 -523 -2 0 315 0 314 -65 0 -65 0 -2 -312 -3 -313 -220 0 -220 0
-3 313 -2 312 -65 0 -65 0 0 -316 0 -316 -352 4 c-330 4 -357 6 -419 26 -129
43 -206 128 -235 260 -16 73 -16 185 1 268 l7 31 -62 12 c-34 7 -64 10 -68 7
-3 -3 -10 -49 -16 -101 -29 -270 59 -471 247 -566 133 -68 46 -64 1466 -64
l1285 0 13 50 c8 28 17 100 21 160 l7 110 32 -75 c17 -42 42 -115 54 -163 l21
-87 654 0 654 0 0 421 0 421 -42 -7 c-288 -45 -492 -181 -544 -363 -24 -82
-14 -184 25 -269 17 -36 31 -67 31 -69 0 -2 -151 -2 -336 -1 l-336 2 -27 80
c-88 262 -235 403 -553 533 l-28 11 22 38 c49 84 242 253 391 342 l37 23 0
-56 0 -56 65 0 65 0 0 160 c0 88 -2 160 -4 160 -1 0 -52 -24 -112 -54z m1216
-907 l0 -272 -67 6 c-149 14 -238 67 -262 154 -33 116 10 215 127 295 45 31
164 86 190 87 9 1 12 -60 12 -270z"/>
<path d="M7710 5666 l0 -585 -330 0 -330 0 0 315 0 314 -65 0 -65 0 0 -315 0
-315 -442 2 -443 3 -3 313 -2 312 -60 0 -60 0 -2 -312 -3 -313 -377 -2 c-208
-1 -378 0 -378 3 0 2 11 27 25 54 92 181 65 413 -65 554 -54 59 -120 89 -203
94 -60 4 -75 1 -132 -27 -193 -95 -271 -383 -165 -606 17 -35 30 -65 30 -69 0
-3 -161 -4 -357 -3 l-358 2 -3 313 -2 312 -65 0 -65 0 0 -315 0 -315 -450 1
c-338 0 -450 3 -450 12 0 7 7 44 15 82 30 140 13 310 -40 415 -35 69 -102 140
-167 176 -50 28 -59 29 -173 29 -116 0 -123 -1 -186 -32 -36 -18 -78 -42 -93
-54 l-26 -21 32 -41 c17 -23 35 -46 39 -50 4 -5 26 3 49 18 170 107 337 64
417 -109 26 -57 28 -69 27 -186 0 -100 -4 -136 -21 -180 l-20 -55 -266 -3
-267 -2 0 -65 0 -65 2815 0 2815 0 0 650 0 650 -65 0 -65 0 0 -584z m-2717
-40 c23 -17 49 -54 69 -94 30 -61 33 -75 33 -162 0 -108 -21 -168 -78 -229
-59 -62 -120 -75 -186 -41 -80 40 -141 158 -141 270 0 108 57 223 135 272 44
28 120 20 168 -16z"/>
<path d="M8040 5600 l0 -650 65 0 65 0 0 650 0 650 -65 0 -65 0 0 -650z"/>
<path d="M11158 5668 l-3 -583 -337 -2 -338 -2 0 314 0 315 -65 0 -65 0 0
-314 0 -314 -277 -1 c-152 -1 -291 1 -308 5 l-31 5 -99 317 c-54 174 -107 345
-117 378 l-19 62 -62 -14 c-141 -33 -245 -111 -302 -227 -108 -223 -44 -445
176 -608 48 -36 69 -58 69 -73 0 -37 -50 -124 -88 -156 -122 -100 -331 -93
-419 15 -39 47 -53 101 -53 209 l0 86 -67 0 -66 0 6 -127 c5 -114 9 -132 37
-189 56 -115 171 -184 318 -192 149 -8 270 36 358 130 52 56 101 153 110 220
9 62 -15 100 -106 168 -151 111 -213 224 -193 346 6 34 18 77 28 97 24 52 82
115 125 137 l38 20 26 -78 c38 -116 206 -653 206 -658 0 -2 576 -4 1280 -4
l1280 0 0 420 0 420 -77 0 c-105 0 -257 -24 -348 -55 -200 -67 -341 -167 -462
-329 l-23 -30 0 437 0 437 -65 0 -65 0 -2 -582z m920 -300 l-3 -283 -387 -3
c-307 -2 -388 0 -388 10 0 23 65 162 97 208 102 148 284 270 478 318 85 22
120 28 173 31 l32 1 -2 -282z"/>
<path d="M4835 6134 c-15 -16 -25 -39 -25 -56 0 -38 48 -88 85 -88 37 0 85 50
85 88 0 43 -40 82 -85 82 -26 0 -43 -7 -60 -26z"/>
<path d="M14030 5550 l0 -600 65 0 65 0 0 600 0 600 -65 0 -65 0 0 -600z"/>
<path d="M2472 6087 c-22 -23 -29 -68 -16 -102 9 -23 62 -48 90 -41 36 9 64
45 64 83 0 72 -90 111 -138 60z"/>
<path d="M5916 6029 c-20 -16 -26 -29 -26 -60 0 -52 27 -79 80 -79 53 0 80 27
80 79 0 46 -35 81 -80 81 -15 0 -39 -9 -54 -21z"/>
<path d="M6670 6030 c-29 -29 -27 -90 3 -118 54 -51 137 -15 137 58 0 53 -27
80 -80 80 -27 0 -47 -7 -60 -20z"/>
<path d="M6921 6024 c-45 -57 -8 -134 64 -134 72 0 109 77 64 134 -16 21 -29
26 -64 26 -35 0 -48 -5 -64 -26z"/>
<path d="M11503 6035 c-29 -21 -38 -66 -19 -103 17 -34 34 -42 81 -42 66 0
101 92 52 138 -27 26 -82 29 -114 7z"/>
<path d="M16222 6043 c-7 -3 -19 -18 -28 -35 -12 -24 -13 -36 -4 -64 13 -40
35 -54 83 -54 69 0 105 90 54 138 -22 21 -73 28 -105 15z"/>
<path d="M16462 6027 c-49 -52 -13 -137 57 -137 44 0 67 14 79 50 13 36 -1 86
-28 100 -34 18 -85 12 -108 -13z"/>
<path d="M1710 5792 c-45 -24 -104 -101 -132 -172 -30 -75 -36 -220 -13 -289
36 -108 139 -236 278 -343 42 -33 77 -64 77 -67 0 -27 -37 -105 -64 -137 -94
-109 -297 -134 -409 -51 -69 53 -87 101 -87 234 l0 113 -66 0 -66 0 4 -137 c3
-127 5 -143 31 -195 48 -99 147 -167 276 -189 80 -14 203 2 276 37 122 57 219
186 232 306 7 73 -13 103 -143 206 -143 114 -211 209 -229 319 -12 75 42 215
94 242 30 16 64 -18 117 -117 26 -48 49 -89 51 -91 2 -3 97 43 111 55 8 6 -91
184 -123 221 -61 71 -144 92 -215 55z"/>
<path d="M12900 5795 c-161 -30 -290 -93 -385 -189 -166 -168 -192 -408 -57
-539 71 -68 157 -98 326 -112 l78 -7 -4 -116 c-3 -99 -8 -126 -30 -173 -28
-61 -67 -93 -130 -104 l-38 -7 0 -65 0 -66 43 7 c86 14 122 31 173 81 36 35
58 67 73 108 21 59 41 192 41 285 l0 52 415 0 415 0 0 380 0 380 -65 0 -65 0
0 -315 0 -314 -350 0 -350 0 0 365 c0 200 -3 364 -7 363 -5 0 -42 -7 -83 -14z
m-40 -425 c0 -254 -2 -281 -17 -287 -28 -11 -188 14 -230 36 -53 26 -100 82
-109 127 -21 115 51 250 177 330 46 29 145 73 167 74 9 0 12 -63 12 -280z"/>
<path d="M3545 4745 c-53 -52 -18 -135 56 -135 69 0 106 58 75 118 -26 50 -91
58 -131 17z"/>
<path d="M3795 4745 c-31 -30 -32 -73 -4 -109 16 -21 29 -26 64 -26 57 0 90
36 81 90 -11 69 -92 95 -141 45z"/>
<path d="M10355 4745 c-54 -54 -13 -145 65 -145 30 0 80 53 80 83 0 14 -12 39
-26 56 -33 40 -83 43 -119 6z"/>
<path d="M13695 4745 c-41 -40 -33 -105 16 -130 39 -21 64 -19 93 8 40 34 43
77 11 115 -34 41 -84 44 -120 7z"/>
<path d="M15495 4745 c-41 -40 -33 -105 16 -130 39 -21 64 -19 95 9 21 18 28
32 28 61 0 74 -88 112 -139 60z"/>
<path d="M1421 4423 c-33 -27 -38 -82 -11 -116 18 -22 29 -27 65 -27 35 0 48
5 64 26 28 36 27 79 -4 109 -29 30 -83 33 -114 8z"/>
<path d="M1692 4417 c-48 -51 -13 -137 55 -137 45 0 62 9 79 42 12 24 13 36 4
64 -13 40 -35 54 -83 54 -22 0 -41 -8 -55 -23z"/>
<path d="M8862 4420 c-29 -27 -30 -92 -2 -120 28 -28 93 -27 120 2 28 31 27
88 -3 116 -30 29 -86 29 -115 2z"/>
<path d="M9152 4433 c-22 -9 -44 -63 -37 -94 14 -61 105 -82 144 -33 44 56 10
135 -57 133 -20 0 -43 -3 -50 -6z"/>
<path d="M10890 3710 c-68 -23 -131 -88 -157 -163 -16 -46 -18 -87 -18 -342 0
-319 5 -354 64 -446 21 -35 44 -54 85 -74 50 -25 68 -28 159 -28 90 0 110 3
159 25 87 40 132 112 144 232 l7 66 -70 0 -70 0 -5 -44 c-7 -62 -37 -117 -78
-144 -30 -20 -45 -23 -102 -20 -58 3 -71 8 -98 33 -49 47 -61 105 -67 325 -6
218 6 365 34 413 23 39 94 77 145 77 54 0 116 -28 133 -60 8 -15 17 -50 21
-78 l7 -52 63 0 64 0 0 58 c0 31 -5 75 -11 97 -14 51 -81 116 -136 133 -62 19
-208 15 -273 -8z"/>
<path d="M15539 3716 c-95 -34 -157 -97 -184 -188 -19 -64 -22 -545 -4 -630
31 -145 106 -218 246 -238 141 -20 263 19 324 103 58 80 64 120 64 448 l0 296
-35 69 c-38 74 -95 123 -168 144 -52 14 -200 12 -243 -4z m204 -110 c41 -17
83 -66 97 -114 8 -24 10 -132 8 -312 -3 -270 -3 -276 -28 -325 -32 -64 -71
-85 -161 -85 -52 0 -73 5 -100 23 -75 49 -92 138 -87 455 3 221 4 229 28 277
43 83 152 119 243 81z"/>
<path d="M18062 3711 c-69 -24 -126 -79 -155 -151 -21 -53 -22 -67 -22 -355 0
-262 2 -306 18 -351 31 -90 69 -139 131 -169 50 -25 68 -28 159 -28 90 0 110
3 159 25 89 41 130 110 145 241 l6 57 -70 0 -70 0 -5 -44 c-7 -62 -37 -117
-78 -144 -30 -20 -45 -23 -102 -20 -58 3 -71 8 -98 33 -50 48 -62 105 -67 330
-6 220 6 360 35 409 22 38 93 76 144 76 21 0 56 -7 79 -17 46 -18 62 -46 74
-125 l7 -48 64 0 64 0 0 59 c0 107 -40 178 -124 217 -66 31 -212 33 -294 5z"/>
<path d="M1395 3213 c-87 -274 -160 -506 -163 -516 -4 -16 2 -18 64 -15 l68 3
36 115 36 115 200 3 201 2 37 -120 37 -120 76 0 c65 0 74 2 69 16 -3 9 -79
241 -168 515 l-162 499 -86 0 -87 0 -158 -497z m326 87 c43 -140 77 -256 75
-257 -2 -2 -75 -2 -163 -1 l-159 3 68 230 c37 127 73 248 79 270 7 25 14 34
17 25 3 -8 41 -130 83 -270z"/>
<path d="M2210 3194 l0 -515 233 3 232 3 51 28 c90 50 124 119 124 254 0 145
-49 216 -167 241 l-38 8 45 21 c55 24 105 79 119 130 40 144 -32 301 -151 331
-28 7 -128 12 -247 12 l-201 0 0 -516z m366 395 c85 -22 133 -116 104 -206
-28 -86 -64 -103 -220 -103 l-120 0 0 153 c0 85 3 157 7 160 11 11 181 8 229
-4z m17 -440 c105 -29 156 -149 108 -255 -37 -82 -97 -106 -253 -102 l-103 3
-3 183 -2 182 107 0 c60 0 125 -5 146 -11z"/>
<path d="M3070 3338 c0 -394 6 -463 48 -544 23 -45 64 -85 109 -108 49 -25
158 -37 236 -26 120 17 185 67 228 177 23 57 24 66 27 466 l3 407 -65 0 -66 0
0 -359 c0 -444 -10 -505 -90 -559 -31 -21 -45 -23 -112 -20 -87 4 -122 22
-150 79 -32 64 -38 139 -38 500 l0 359 -65 0 -65 0 0 -372z"/>
<path d="M4270 3194 l0 -516 204 4 203 3 68 35 c128 66 155 137 162 427 8 297
-16 413 -102 492 -66 61 -114 71 -342 71 l-193 0 0 -516z m405 380 c86 -45
110 -143 102 -423 -6 -210 -14 -248 -69 -303 -44 -44 -108 -60 -224 -56 l-79
3 -3 390 c-1 214 0 396 3 404 9 23 219 11 270 -15z"/>
<path d="M5150 3195 l0 -515 65 0 65 0 2 233 3 232 183 3 182 2 0 -235 0 -235
65 0 65 0 0 515 0 515 -65 0 -65 0 -2 -222 -3 -223 -180 0 -180 0 -3 223 -2
222 -65 0 -65 0 0 -515z"/>
<path d="M6237 3663 c-8 -27 -80 -255 -161 -509 -80 -253 -146 -463 -146 -468
0 -4 30 -6 67 -4 l67 3 36 115 36 115 200 3 201 2 34 -117 35 -118 76 -3 76
-3 -32 103 c-18 57 -93 289 -167 515 l-134 413 -87 0 -87 0 -14 -47z m183
-362 l77 -256 -78 -3 c-43 -1 -116 -1 -162 0 l-84 3 57 195 c95 322 103 346
108 331 2 -8 39 -129 82 -270z"/>
<path d="M6910 3195 l0 -516 233 3 c252 3 265 6 330 67 58 53 72 95 72 216 0
98 -3 114 -23 147 -30 48 -73 79 -131 94 l-46 11 40 17 c59 25 103 73 120 130
39 130 -7 264 -108 319 -39 21 -56 22 -264 25 l-223 3 0 -516z m365 394 c100
-27 141 -140 88 -242 -28 -55 -65 -67 -200 -67 l-123 0 0 153 c0 85 3 157 7
160 10 11 184 8 228 -4z m50 -451 c49 -26 75 -61 86 -119 15 -72 -1 -132 -47
-176 -46 -43 -87 -53 -216 -53 l-108 0 0 186 0 186 128 -4 c90 -3 136 -9 157
-20z"/>
<path d="M7790 3195 l0 -515 65 0 65 0 0 515 0 515 -65 0 -65 0 0 -515z"/>
<path d="M8490 3195 l0 -515 270 0 270 0 0 55 0 55 -205 0 -205 0 0 180 0 180
185 0 185 0 0 55 0 55 -182 2 -183 3 0 165 0 165 198 3 197 2 0 55 0 55 -265
0 -265 0 0 -515z"/>
<path d="M9120 3705 c0 -3 61 -113 135 -244 74 -131 135 -243 135 -248 0 -9
-142 -270 -262 -480 l-29 -53 73 0 73 0 110 215 c61 118 112 215 115 215 3 0
56 -95 119 -211 63 -116 119 -213 126 -215 7 -3 43 -4 82 -2 l70 3 -153 264
-153 265 24 40 c12 23 64 115 115 206 51 91 103 184 116 208 l25 42 -75 0 -75
0 -103 -195 c-57 -107 -105 -195 -108 -195 -3 0 -51 88 -108 195 l-103 195
-75 0 c-41 0 -74 -2 -74 -5z"/>
<path d="M10000 3195 l0 -515 275 0 275 0 0 55 0 55 -205 0 -205 0 0 180 0
180 185 0 185 0 0 55 0 55 -185 0 -185 0 0 170 0 170 200 0 200 0 0 55 0 55
-270 0 -270 0 0 -515z"/>
<path d="M11510 3366 c0 -391 7 -473 51 -563 52 -108 124 -144 282 -145 90 0
103 2 161 31 68 33 102 72 133 151 16 40 18 91 21 458 l3 412 -65 0 -65 0 -3
-402 c-4 -444 -3 -441 -68 -503 -28 -27 -38 -30 -108 -33 -98 -4 -136 15 -172
84 l-25 48 -3 403 -3 403 -69 0 -70 0 0 -344z"/>
<path d="M12300 3655 l0 -55 135 0 135 0 0 -460 0 -460 65 0 65 0 2 458 3 457
133 3 132 3 0 54 0 55 -335 0 -335 0 0 -55z"/>
<path d="M13130 3195 l0 -515 65 0 65 0 0 515 0 515 -65 0 -65 0 0 -515z"/>
<path d="M13431 3643 c10 -38 77 -268 148 -513 l129 -445 83 0 82 0 148 505
c82 278 149 508 149 513 0 4 -30 7 -68 7 l-67 0 -120 -451 c-80 -305 -122
-445 -127 -433 -8 20 -228 867 -228 878 0 3 -33 6 -74 6 l-74 0 19 -67z"/>
<path d="M14310 3195 l0 -515 270 0 270 0 0 55 0 55 -205 0 -205 0 0 180 0
180 185 0 185 0 0 55 0 55 -185 0 -185 0 0 170 0 170 200 0 200 0 0 55 0 55
-265 0 -265 0 0 -515z"/>
<path d="M16210 3195 l0 -515 65 0 65 0 0 235 0 235 180 0 180 0 0 55 0 55
-180 0 -180 0 0 170 0 170 190 0 190 0 0 55 0 55 -255 0 -255 0 0 -515z"/>
<path d="M16840 3195 l0 -515 70 0 70 0 0 235 0 235 180 0 180 0 0 55 0 55
-180 0 -180 0 0 170 0 170 190 0 190 0 0 55 0 55 -260 0 -260 0 0 -515z"/>
<path d="M17510 3195 l0 -515 65 0 65 0 0 515 0 515 -65 0 -65 0 0 -515z"/>
<path d="M18690 3195 l0 -515 270 0 270 0 0 55 0 55 -205 0 -205 0 0 180 0
180 185 0 185 0 0 55 0 55 -185 0 -185 0 0 170 0 170 200 0 200 0 0 55 0 55
-265 0 -265 0 0 -515z"/>
</g>
</svg>
